<?xml version="1.0" standalone="no"?>
<!DOCTYPE svg PUBLIC "-//W3C//DTD SVG 20010904//EN"
 "http://www.w3.org/TR/2001/REC-SVG-20010904/DTD/svg10.dtd">
<svg version="1.0" xmlns="http://www.w3.org/2000/svg"
 width="260.000000pt" height="260.000000pt" viewBox="0 0 260.000000 260.000000"
 preserveAspectRatio="xMidYMid meet">
<metadata>
Created by potrace 1.14, written by Peter Selinger 2001-2017
</metadata>
<g transform="translate(0.000000,260.000000) scale(0.100000,-0.100000)"
fill="#000000" stroke="none">
<path d="M670 2416 c0 -2 8 -10 18 -17 15 -13 16 -12 3 4 -13 16 -21 21 -21
13z"/>
<path d="M814 2409 c-3 -6 -2 -15 3 -20 5 -5 9 -1 9 11 0 23 -2 24 -12 9z"/>
<path d="M1070 2416 c0 -2 8 -10 18 -17 15 -13 16 -12 3 4 -13 16 -21 21 -21
13z"/>
<path d="M1230 2416 c0 -2 8 -10 18 -17 15 -13 16 -12 3 4 -13 16 -21 21 -21
13z"/>
<path d="M1294 2409 c-3 -6 -2 -15 3 -20 5 -5 9 -1 9 11 0 23 -2 24 -12 9z"/>
<path d="M1630 2416 c0 -2 8 -10 18 -17 15 -13 16 -12 3 4 -13 16 -21 21 -21
13z"/>
<path d="M1774 2409 c-3 -6 -2 -15 3 -20 5 -5 9 -1 9 11 0 23 -2 24 -12 9z"/>
<path d="M500 2400 c-9 -6 -10 -10 -3 -10 6 0 15 5 18 10 8 12 4 12 -15 0z"/>
<path d="M770 2401 c0 -6 4 -13 10 -16 6 -3 7 1 4 9 -7 18 -14 21 -14 7z"/>
<path d="M1495 2401 c-3 -5 -2 -12 3 -15 5 -3 9 1 9 9 0 17 -3 19 -12 6z"/>
<path d="M1730 2401 c0 -6 4 -13 10 -16 6 -3 7 1 4 9 -7 18 -14 21 -14 7z"/>
<path d="M715 2391 c-3 -5 -2 -12 3 -15 5 -3 9 1 9 9 0 17 -3 19 -12 6z"/>
<path d="M1675 2391 c-3 -5 -2 -12 3 -15 5 -3 9 1 9 9 0 17 -3 19 -12 6z"/>
<path d="M410 2380 c0 -5 5 -10 11 -10 5 0 7 5 4 10 -3 6 -8 10 -11 10 -2 0
-4 -4 -4 -10z"/>
<path d="M459 2383 c-1 -5 -1 -11 0 -15 1 -7 -22 -12 -41 -9 -5 0 -8 -3 -8 -8
0 -5 -11 -12 -25 -15 -14 -4 -43 -24 -64 -46 -21 -22 -42 -36 -46 -32 -5 4 -5
1 -1 -5 7 -12 -16 -57 -25 -49 -6 6 -11 -64 -13 -174 -1 -70 -5 -98 -16 -108
-13 -12 -13 -13 1 -9 14 5 16 -1 13 -34 -2 -22 -7 -45 -10 -51 -4 -7 -2 -8 4
-4 14 8 11 -56 -3 -66 -6 -5 -5 -8 4 -8 10 0 11 -3 2 -14 -8 -9 -8 -16 -2 -20
7 -5 7 -15 1 -32 -6 -14 -7 -23 -2 -21 9 6 8 -315 -1 -330 -4 -6 -2 -15 4 -19
8 -4 7 -9 -2 -15 -12 -7 -12 -9 0 -9 11 0 11 -3 0 -17 -8 -9 -9 -14 -4 -11 6
4 10 -46 10 -143 0 -103 -3 -148 -11 -145 -6 2 -11 -2 -11 -10 0 -8 6 -13 13
-10 9 3 11 -7 8 -35 -2 -22 -7 -45 -10 -51 -4 -6 -3 -8 3 -5 11 7 11 -71 0
-90 -4 -6 -3 -14 2 -18 7 -4 7 -15 1 -31 -6 -14 -7 -23 -2 -21 10 7 7 -207 -3
-223 -5 -8 -4 -11 2 -7 11 7 46 -100 38 -114 -4 -5 2 -6 11 -2 13 5 16 3 11
-10 -4 -10 -2 -16 6 -14 7 1 11 -4 9 -11 -1 -8 1 -11 6 -8 5 3 16 -3 25 -12
27 -29 46 -42 60 -42 7 0 18 -5 25 -12 7 -7 12 -8 12 -4 0 5 7 3 15 -4 8 -7
15 -9 15 -4 0 5 5 2 10 -6 9 -13 10 -13 10 0 0 13 1 13 10 0 8 -12 10 -12 10
-1 0 11 3 11 15 1 8 -7 15 -8 15 -4 0 5 20 8 45 6 30 -3 43 -8 39 -16 -3 -6 1
-3 9 7 11 14 16 15 20 5 3 -7 6 -8 6 -3 1 6 20 9 46 7 30 -3 43 -8 39 -16 -3
-6 0 -4 8 4 15 18 61 15 52 -3 -3 -7 2 -3 10 7 16 20 16 20 17 0 0 -17 1 -17
7 -2 6 16 10 16 35 3 15 -8 25 -10 22 -5 -3 5 -1 11 4 14 5 4 12 -2 14 -11 4
-17 5 -17 6 0 1 11 6 15 13 11 6 -4 31 -6 55 -5 33 1 43 -2 38 -11 -4 -7 0 -5
8 4 10 13 16 15 25 6 7 -7 12 -8 12 -2 0 5 11 9 25 9 14 0 25 -2 25 -5 0 -4
16 -4 36 -2 29 4 35 2 30 -9 -4 -8 -1 -6 7 4 11 14 16 15 20 5 3 -7 6 -8 6 -3
1 6 22 9 51 7 34 -3 48 -8 44 -15 -3 -7 0 -5 8 3 15 18 51 15 42 -3 -3 -7 0
-5 8 3 7 9 19 15 26 14 6 -1 26 -2 43 -3 21 -1 28 -5 24 -13 -4 -7 0 -5 8 5
11 14 16 15 20 5 3 -7 6 -8 6 -3 1 6 20 9 46 7 30 -3 43 -8 39 -16 -3 -6 1 -3
9 7 11 14 16 15 20 5 3 -7 6 -8 6 -3 1 6 20 9 46 7 30 -3 43 -8 39 -16 -3 -6
0 -4 8 4 15 18 61 15 52 -3 -3 -7 2 -3 10 7 16 20 16 20 17 0 0 -17 1 -17 7
-2 6 16 10 16 35 3 15 -8 25 -10 22 -5 -3 5 -1 11 4 14 5 4 12 -2 14 -11 4
-17 5 -17 6 0 1 11 6 15 13 11 6 -4 31 -6 55 -5 33 1 43 -2 38 -11 -4 -7 -1
-6 7 2 17 19 108 21 108 3 0 -7 4 -13 10 -13 5 0 7 6 4 13 -3 8 1 14 8 14 49
2 113 30 150 66 10 9 23 17 29 17 5 0 7 4 4 10 -3 6 -2 10 3 10 6 0 19 18 30
40 10 22 22 36 26 33 4 -4 4 0 0 10 -3 9 -1 24 6 32 7 8 9 15 6 15 -4 0 -2 10
5 21 6 12 7 19 2 16 -4 -3 -8 28 -8 69 0 41 2 74 5 74 3 0 5 27 5 60 0 33 -4
60 -10 60 -7 0 -7 3 0 8 13 9 13 165 0 174 -17 12 -30 -9 -29 -49 0 -23 -6
-43 -15 -51 -14 -11 -14 -11 -1 -7 11 4 16 -1 17 -16 2 -18 0 -19 -15 -7 -16
12 -16 11 -2 -6 16 -21 19 -56 8 -99 -4 -16 -3 -25 3 -22 12 8 12 -11 0 -53
-6 -18 -7 -30 -3 -28 4 2 7 -20 8 -50 0 -42 -3 -54 -16 -54 -12 0 -12 -2 -1
-9 17 -11 5 -70 -16 -78 -12 -5 -12 -7 -2 -14 10 -6 7 -11 -11 -18 -14 -5 -18
-10 -10 -10 10 -1 5 -10 -15 -30 -22 -21 -34 -26 -43 -18 -9 7 -11 6 -7 -6 6
-13 -8 -29 -27 -33 -5 -1 -10 -3 -13 -4 -3 -1 -8 -3 -12 -5 -5 -1 -15 -4 -23
-7 -8 -4 -26 -9 -38 -11 -24 -6 -24 -5 -5 16 16 19 16 20 0 8 -9 -8 -20 -11
-24 -7 -3 3 -15 -1 -25 -11 -11 -10 -18 -12 -19 -5 -3 26 -4 31 -11 37 -3 4
-5 -1 -4 -12 5 -27 -6 -40 -15 -17 -7 17 -8 17 -8 2 -1 -10 -5 -18 -11 -18 -5
0 -14 8 -19 18 -10 16 -10 16 -11 0 0 -15 -4 -16 -26 -8 -14 6 -23 7 -21 2 3
-4 -46 -7 -108 -7 -62 0 -111 3 -108 8 2 4 -1 7 -6 7 -6 0 -11 -5 -11 -12 0
-6 -7 -3 -15 8 -14 18 -15 18 -8 0 4 -13 2 -17 -8 -14 -8 3 -13 15 -13 27 1
20 -9 21 -12 0 -1 -5 -2 -12 -3 -16 -1 -11 -261 -10 -261 0 0 5 -5 5 -12 1
-16 -10 -58 -12 -52 -2 3 4 0 8 -5 8 -6 0 -11 -6 -12 -12 0 -7 -4 -4 -9 7 -7
17 -9 17 -9 3 -1 -20 -16 -24 -27 -7 -4 8 -9 7 -15 -2 -7 -11 -9 -11 -9 1 0
13 -2 13 -10 0 -7 -12 -12 -11 -30 5 -15 14 -19 15 -15 4 4 -10 0 -16 -10 -16
-10 0 -14 6 -10 16 4 12 1 11 -9 -2 -14 -18 -14 -18 -19 0 -4 16 -5 16 -6 1
-1 -20 -16 -24 -27 -7 -4 8 -9 7 -15 -2 -7 -11 -9 -11 -9 1 0 13 -2 13 -10 0
-7 -12 -12 -11 -30 5 -17 15 -20 16 -15 3 7 -18 -9 -19 -34 -4 -8 5 -12 5 -9
0 4 -5 -42 -9 -107 -9 -62 0 -111 3 -108 8 2 4 -1 7 -6 7 -6 0 -11 -5 -11 -12
0 -6 -7 -3 -15 8 -14 18 -15 18 -8 0 4 -13 2 -17 -8 -14 -8 3 -13 14 -13 26 1
12 -3 19 -7 16 -5 -3 -7 -9 -5 -13 3 -4 1 -13 -5 -21 -7 -13 -9 -13 -9 0 0 13
-2 13 -10 0 -7 -12 -12 -12 -29 4 -11 10 -18 23 -14 29 4 6 1 7 -6 2 -9 -5
-10 -10 -2 -18 19 -19 12 -22 -39 -22 -27 0 -50 2 -50 5 0 4 -10 6 -22 6 -46
0 -78 16 -79 38 0 20 -1 20 -9 1 -7 -17 -9 -17 -9 -2 -1 9 -7 17 -15 17 -15 0
-64 60 -49 60 4 0 3 4 -3 8 -32 21 -34 74 -34 913 0 590 3 839 11 839 6 0 9 6
6 13 -9 26 65 133 85 121 4 -3 8 0 8 5 0 6 7 11 15 11 8 0 15 4 15 9 0 16 52
23 61 9 7 -11 9 -10 9 1 0 9 10 12 35 9 19 -2 35 -1 35 2 0 4 23 4 50 0 28 -4
50 -4 50 -1 0 4 32 4 70 1 39 -3 70 -3 70 0 0 3 130 3 290 0 160 -3 290 -3
290 0 0 3 32 3 70 0 39 -3 70 -3 70 1 0 3 23 3 50 -1 28 -4 50 -4 50 -1 0 4
32 4 70 1 39 -3 70 -3 70 0 0 3 67 3 150 0 83 -3 150 -1 150 3 0 5 4 6 8 3 5
-3 28 -6 51 -7 33 -2 41 -6 38 -19 -3 -10 2 -16 14 -16 14 0 15 3 7 13 -8 10
-7 12 6 7 9 -3 16 -10 16 -16 0 -5 5 -6 10 -3 12 7 13 -7 3 -21 -5 -5 -2 -4 6
3 12 10 20 7 44 -20 50 -55 73 -92 55 -85 -17 7 -19 -15 -3 -29 4 -4 5 -2 0 6
-5 9 -3 12 6 9 18 -6 18 -9 22 -286 2 -127 7 -235 11 -239 18 -18 25 27 28
175 2 101 -1 164 -7 166 -5 3 -4 5 3 5 7 1 10 6 7 12 -4 6 -8 43 -9 82 -2 47
-9 88 -23 117 -21 48 -107 140 -131 140 -9 0 -12 6 -8 16 5 13 4 14 -7 6 -10
-8 -20 -8 -39 2 -15 8 -30 11 -34 8 -4 -4 -4 2 -1 13 7 19 6 19 -7 3 -16 -21
-30 -24 -23 -5 3 8 -1 14 -8 14 -8 0 -13 -5 -12 -10 1 -5 -4 -12 -12 -15 -9
-3 -11 0 -6 9 6 11 5 12 -6 2 -16 -15 -33 -17 -24 -3 3 6 1 10 -4 10 -6 0 -11
-4 -11 -8 0 -5 -10 -8 -22 -7 -14 2 -22 8 -20 16 2 11 -1 11 -10 -1 -14 -16
-131 -22 -121 -6 4 5 0 6 -7 1 -20 -13 -180 -13 -173 0 3 5 0 4 -8 -2 -16 -15
-33 -17 -24 -3 3 6 1 10 -4 10 -6 0 -11 -3 -11 -7 0 -5 -18 -8 -40 -9 -25 0
-37 3 -33 10 5 8 2 8 -8 1 -8 -6 -27 -9 -44 -8 -39 4 -43 4 -92 0 -25 -2 -39
1 -36 7 4 5 1 6 -7 1 -21 -13 -100 -13 -93 -1 3 6 0 5 -8 -1 -16 -15 -33 -17
-24 -3 3 6 1 10 -4 10 -6 0 -11 -3 -11 -7 0 -5 -27 -8 -59 -9 -40 0 -58 3 -54
10 3 6 0 5 -8 -1 -16 -15 -33 -17 -24 -3 3 6 1 10 -4 10 -6 0 -11 -4 -11 -8 0
-5 -10 -8 -22 -7 -14 2 -22 8 -20 16 2 11 -1 11 -10 -1 -14 -16 -131 -22 -121
-6 4 5 0 6 -7 1 -20 -13 -180 -13 -173 0 3 5 0 4 -8 -2 -16 -15 -33 -17 -24
-3 3 6 1 10 -4 10 -6 0 -11 -4 -11 -10 0 -5 -5 -10 -11 -10 -5 0 -7 4 -4 10 4
6 -2 7 -17 2 -28 -10 -90 -8 -108 3 -9 5 -11 4 -6 -3 5 -8 0 -11 -16 -8 -13 2
-22 9 -20 15 1 6 0 11 -3 11 -3 0 -6 -3 -6 -7z m1611 -2113 c0 -5 -5 -10 -11
-10 -5 0 -7 5 -4 10 3 6 8 10 11 10 2 0 4 -4 4 -10z"/>
<path d="M2186 2382 c-3 -5 1 -9 9 -9 8 0 12 4 9 9 -3 4 -7 8 -9 8 -2 0 -6 -4
-9 -8z"/>
<path d="M2113 2305 c0 -8 4 -12 9 -9 5 3 6 10 3 15 -9 13 -12 11 -12 -6z"/>
<path d="M2055 2300 c3 -5 8 -10 11 -10 2 0 4 5 4 10 0 6 -5 10 -11 10 -5 0
-7 -4 -4 -10z"/>
<path d="M454 2280 c0 -13 4 -16 10 -10 7 7 7 13 0 20 -6 6 -10 3 -10 -10z"/>
<path d="M2270 2297 c0 -2 6 -10 14 -16 11 -9 16 -9 22 1 4 7 4 10 -1 6 -4 -4
-14 -3 -22 3 -7 6 -13 9 -13 6z"/>
<path d="M346 2262 c-3 -5 1 -9 9 -9 8 0 15 4 15 9 0 4 -4 8 -9 8 -6 0 -12 -4
-15 -8z"/>
<path d="M2233 2245 c0 -8 4 -12 9 -9 5 3 6 10 3 15 -9 13 -12 11 -12 -6z"/>
<path d="M315 2221 c-3 -5 -2 -12 3 -15 5 -3 9 1 9 9 0 17 -3 19 -12 6z"/>
<path d="M347 2219 c7 -7 15 -10 18 -7 3 3 -2 9 -12 12 -14 6 -15 5 -6 -5z"/>
<path d="M2250 2220 c0 -5 5 -10 11 -10 5 0 7 5 4 10 -3 6 -8 10 -11 10 -2 0
-4 -4 -4 -10z"/>
<path d="M293 2115 c0 -8 4 -12 9 -9 4 3 8 9 8 15 0 5 -4 9 -8 9 -5 0 -9 -7
-9 -15z"/>
<path d="M190 2099 c0 -5 5 -7 10 -4 6 3 10 8 10 11 0 2 -4 4 -10 4 -5 0 -10
-5 -10 -11z"/>
<path d="M2313 2035 c0 -8 4 -12 9 -9 5 3 6 10 3 15 -9 13 -12 11 -12 -6z"/>
<path d="M510 1365 l0 -675 140 0 140 0 0 675 0 675 -140 0 -140 0 0 -675z"/>
<path d="M2395 1980 c-3 -5 -1 -10 4 -10 6 0 11 5 11 10 0 6 -2 10 -4 10 -3 0
-8 -4 -11 -10z"/>
<path d="M2395 1940 c3 -5 8 -10 11 -10 2 0 4 5 4 10 0 6 -5 10 -11 10 -5 0
-7 -4 -4 -10z"/>
<path d="M286 1918 c3 -5 10 -6 15 -3 13 9 11 12 -6 12 -8 0 -12 -4 -9 -9z"/>
<path d="M286 1838 c3 -5 10 -6 15 -3 13 9 11 12 -6 12 -8 0 -12 -4 -9 -9z"/>
<path d="M2295 1840 c-4 -6 -1 -9 7 -8 7 2 12 -3 10 -10 -1 -8 2 -11 8 -7 8 5
7 11 -1 21 -14 17 -16 17 -24 4z"/>
<path d="M306 1802 c-3 -5 1 -9 9 -9 8 0 12 4 9 9 -3 4 -7 8 -9 8 -2 0 -6 -4
-9 -8z"/>
<path d="M286 1758 c3 -5 10 -6 15 -3 13 9 11 12 -6 12 -8 0 -12 -4 -9 -9z"/>
<path d="M2296 1742 c-3 -5 1 -9 9 -9 8 0 12 4 9 9 -3 4 -7 8 -9 8 -2 0 -6 -4
-9 -8z"/>
<path d="M186 1722 c-3 -5 1 -9 9 -9 8 0 15 4 15 9 0 4 -4 8 -9 8 -6 0 -12 -4
-15 -8z"/>
<path d="M2290 1699 c0 -5 5 -7 10 -4 6 3 10 8 10 11 0 2 -4 4 -10 4 -5 0 -10
-5 -10 -11z"/>
<path d="M286 1678 c3 -5 10 -6 15 -3 13 9 11 12 -6 12 -8 0 -12 -4 -9 -9z"/>
<path d="M1050 1191 l0 -501 135 0 135 0 2 432 3 433 130 0 c161 0 228 -9 281
-40 92 -54 98 -82 99 -485 l0 -335 138 -3 138 -3 -3 353 c-3 344 -4 355 -27
412 -28 69 -93 140 -161 173 -108 53 -141 56 -517 61 l-353 3 0 -500z"/>
<path d="M210 1640 c0 -5 5 -10 11 -10 5 0 7 5 4 10 -3 6 -8 10 -11 10 -2 0
-4 -4 -4 -10z"/>
<path d="M306 1002 c-3 -5 1 -9 9 -9 8 0 12 4 9 9 -3 4 -7 8 -9 8 -2 0 -6 -4
-9 -8z"/>
<path d="M286 958 c3 -5 10 -6 15 -3 13 9 11 12 -6 12 -8 0 -12 -4 -9 -9z"/>
<path d="M286 878 c3 -5 10 -6 15 -3 13 9 11 12 -6 12 -8 0 -12 -4 -9 -9z"/>
<path d="M306 842 c-3 -5 1 -9 9 -9 8 0 12 4 9 9 -3 4 -7 8 -9 8 -2 0 -6 -4
-9 -8z"/>
<path d="M2386 842 c-3 -5 1 -9 9 -9 8 0 12 4 9 9 -3 4 -7 8 -9 8 -2 0 -6 -4
-9 -8z"/>
<path d="M286 798 c3 -5 10 -6 15 -3 13 9 11 12 -6 12 -8 0 -12 -4 -9 -9z"/>
<path d="M186 762 c-3 -5 1 -9 9 -9 8 0 15 4 15 9 0 4 -4 8 -9 8 -6 0 -12 -4
-15 -8z"/>
<path d="M286 718 c3 -5 10 -6 15 -3 13 9 11 12 -6 12 -8 0 -12 -4 -9 -9z"/>
<path d="M2396 658 c3 -5 10 -6 15 -3 13 9 11 12 -6 12 -8 0 -12 -4 -9 -9z"/>
<path d="M2296 602 c-3 -5 1 -9 9 -9 8 0 12 4 9 9 -3 4 -7 8 -9 8 -2 0 -6 -4
-9 -8z"/>
<path d="M2313 555 c0 -8 4 -12 9 -9 5 3 6 10 3 15 -9 13 -12 11 -12 -6z"/>
<path d="M199 508 c-5 -18 -6 -38 -1 -34 7 8 12 36 6 36 -2 0 -4 -1 -5 -2z"/>
<path d="M296 447 c3 -10 9 -15 12 -12 3 3 0 11 -7 18 -10 9 -11 8 -5 -6z"/>
<path d="M336 374 c-8 -20 -8 -24 2 -24 4 0 8 9 9 20 2 24 -3 26 -11 4z"/>
<path d="M2250 381 c0 -6 4 -13 10 -16 6 -3 7 1 4 9 -7 18 -14 21 -14 7z"/>
<path d="M2216 362 c-3 -4 4 -9 15 -9 23 -2 25 3 4 10 -8 4 -16 3 -19 -1z"/>
<path d="M2176 341 c-3 -5 2 -15 12 -22 15 -12 16 -12 5 2 -7 9 -10 19 -6 22
3 4 4 7 0 7 -3 0 -8 -4 -11 -9z"/>
<path d="M1950 321 c0 -6 4 -13 10 -16 6 -3 7 1 4 9 -7 18 -14 21 -14 7z"/>
<path d="M425 300 c-3 -6 1 -7 9 -4 18 7 21 14 7 14 -6 0 -13 -4 -16 -10z"/>
<path d="M710 306 c0 -2 7 -7 16 -10 8 -3 12 -2 9 4 -6 10 -25 14 -25 6z"/>
<path d="M810 300 c0 -5 5 -10 11 -10 5 0 7 5 4 10 -3 6 -8 10 -11 10 -2 0 -4
-4 -4 -10z"/>
<path d="M930 300 c0 -5 5 -10 11 -10 5 0 7 5 4 10 -3 6 -8 10 -11 10 -2 0 -4
-4 -4 -10z"/>
<path d="M1295 300 c-3 -5 -1 -10 4 -10 6 0 11 5 11 10 0 6 -2 10 -4 10 -3 0
-8 -4 -11 -10z"/>
<path d="M1505 300 c-3 -6 1 -7 9 -4 18 7 21 14 7 14 -6 0 -13 -4 -16 -10z"/>
<path d="M1573 298 c1 -7 -4 -12 -11 -10 -8 1 -11 -2 -7 -8 5 -8 11 -8 21 1 7
6 11 15 8 20 -8 13 -14 11 -11 -3z"/>
<path d="M1670 306 c0 -2 7 -7 16 -10 8 -3 12 -2 9 4 -6 10 -25 14 -25 6z"/>
<path d="M1770 300 c0 -5 5 -10 11 -10 5 0 7 5 4 10 -3 6 -8 10 -11 10 -2 0
-4 -4 -4 -10z"/>
<path d="M1890 300 c0 -5 5 -10 11 -10 5 0 7 5 4 10 -3 6 -8 10 -11 10 -2 0
-4 -4 -4 -10z"/>
<path d="M865 280 c-3 -6 1 -7 9 -4 18 7 21 14 7 14 -6 0 -13 -4 -16 -10z"/>
<path d="M1825 280 c-3 -6 1 -7 9 -4 18 7 21 14 7 14 -6 0 -13 -4 -16 -10z"/>
<path d="M387 239 c7 -7 15 -10 18 -7 3 3 -2 9 -12 12 -14 6 -15 5 -6 -5z"/>
<path d="M2170 226 c0 -2 7 -7 16 -10 8 -3 12 -2 9 4 -6 10 -25 14 -25 6z"/>
<path d="M515 200 c3 -5 8 -10 11 -10 2 0 4 5 4 10 0 6 -5 10 -11 10 -5 0 -7
-4 -4 -10z"/>
<path d="M695 201 c-3 -5 -2 -12 3 -15 5 -3 9 1 9 9 0 17 -3 19 -12 6z"/>
<path d="M1655 201 c-3 -5 -2 -12 3 -15 5 -3 9 1 9 9 0 17 -3 19 -12 6z"/>
</g>
</svg>
